<svg xmlns="http://www.w3.org/2000/svg" width="24" height="24" fill="none"><g clip-path="url(#a)"><path fill="#1877F2" d="M22 12c0-5.523-4.477-10-10-10S2 6.477 2 12c0 4.991 3.657 9.128 8.438 9.878v-6.987h-2.54V12h2.54V9.797c0-2.506 1.492-3.89 3.777-3.89 1.094 0 2.238.195 2.238.195v2.46h-1.26c-1.243 0-1.63.771-1.63 1.562V12h2.773l-.443 2.89h-2.33v6.988C18.343 21.129 22 16.992 22 12"/><path fill="#fff" d="m15.893 14.89.443-2.89h-2.773v-1.876c0-.79.387-1.562 1.63-1.562h1.26v-2.46s-1.144-.196-2.238-.196c-2.284 0-3.777 1.385-3.777 3.89V12h-2.54v2.89h2.54v6.988a10 10 0 0 0 3.124 0v-6.987z"/></g><defs><clipPath id="a"><path fill="#fff" d="M2 2h20v20H2z"/></clipPath></defs></svg>