<svg xmlns="http://www.w3.org/2000/svg" width="24" height="24" fill="none"><g clip-path="url(#a)"><path fill="url(#b)" d="M17.313 2H6.688A4.69 4.69 0 0 0 2 6.688v10.625A4.69 4.69 0 0 0 6.688 22h10.625A4.69 4.69 0 0 0 22 17.313V6.688A4.69 4.69 0 0 0 17.313 2"/><path fill="url(#c)" d="M17.313 2H6.688A4.69 4.69 0 0 0 2 6.688v10.625A4.69 4.69 0 0 0 6.688 22h10.625A4.69 4.69 0 0 0 22 17.313V6.688A4.69 4.69 0 0 0 17.313 2"/><path fill="#fff" d="M12 4.188c-2.121 0-2.387.009-3.22.047-.832.038-1.4.17-1.897.363-.514.2-.95.466-1.384.9-.434.435-.701.87-.901 1.384-.194.497-.326 1.065-.363 1.897-.038.833-.048 1.1-.048 3.221s.01 2.387.048 3.22c.038.832.17 1.4.363 1.897.2.514.466.95.9 1.384.435.434.87.702 1.384.901.497.194 1.065.325 1.897.363s1.1.048 3.22.048c2.123 0 2.388-.01 3.221-.047.832-.039 1.4-.17 1.898-.363.513-.2.949-.468 1.383-.902s.701-.87.901-1.384c.192-.497.324-1.065.363-1.896.038-.834.047-1.1.047-3.22 0-2.123-.01-2.389-.047-3.222-.039-.832-.17-1.4-.363-1.896-.2-.514-.467-.95-.901-1.384a3.8 3.8 0 0 0-1.384-.901c-.498-.194-1.066-.325-1.898-.363-.833-.038-1.098-.048-3.22-.048zm-.7 1.407h.7c2.087 0 2.334.008 3.158.045.761.035 1.175.162 1.45.27.365.14.625.31.898.584s.443.534.585.898c.107.275.234.689.269 1.45.037.824.045 1.071.045 3.156s-.008 2.333-.045 3.156c-.035.762-.162 1.175-.27 1.45a2.4 2.4 0 0 1-.584.898 2.4 2.4 0 0 1-.898.584c-.275.108-.689.235-1.45.27-.824.037-1.071.045-3.157.045s-2.334-.008-3.157-.046c-.762-.035-1.175-.162-1.45-.269a2.4 2.4 0 0 1-.9-.584 2.4 2.4 0 0 1-.584-.898c-.107-.275-.234-.689-.27-1.45-.036-.824-.044-1.071-.044-3.158s.008-2.332.045-3.156c.035-.761.162-1.175.269-1.45a2.4 2.4 0 0 1 .585-.899c.273-.273.534-.442.898-.584.276-.108.69-.235 1.45-.27.722-.032 1-.042 2.457-.044zm4.871 1.298a.937.937 0 1 0 0 1.875.937.937 0 0 0 0-1.876m-4.17 1.095a4.012 4.012 0 1 0 0 8.024 4.012 4.012 0 0 0 0-8.024m0 1.408a2.604 2.604 0 1 1 0 5.208 2.604 2.604 0 0 1 0-5.208"/></g><defs><radialGradient id="b" cx="0" cy="0" r="1" gradientTransform="matrix(0 -19.8215 18.4355 0 7.313 23.54)" gradientUnits="userSpaceOnUse"><stop stop-color="#FD5"/><stop offset=".1" stop-color="#FD5"/><stop offset=".5" stop-color="#FF543E"/><stop offset="1" stop-color="#C837AB"/></radialGradient><radialGradient id="c" cx="0" cy="0" r="1" gradientTransform="matrix(1.73902 8.68797 -35.81212 7.16832 -1.35 3.44)" gradientUnits="userSpaceOnUse"><stop stop-color="#3771C8"/><stop offset=".128" stop-color="#3771C8"/><stop offset="1" stop-color="#60F" stop-opacity="0"/></radialGradient><clipPath id="a"><path fill="#fff" d="M2 2h20v20H2z"/></clipPath></defs></svg>