<svg xmlns="http://www.w3.org/2000/svg" width="33" height="24" fill="none"><path fill="#9333EA" d="M6.757 9.055v10.127H4.134V9.055H.347V6.519h10.197v2.536zm21.701 0v10.127h-2.623V9.055H22.05V6.519h10.196v2.536z"/><path fill="#35E166" d="M21.664 19.182H10.905v-.883c0-2.289 1.205-4.135 3.593-5.56l1.847-1.105c.341-.22.622-.38.823-.521.18-.14.401-.322.642-.522.462-.422.663-.904.663-1.466q0-.812-.602-1.385c-.402-.381-.924-.562-1.566-.562-.562 0-1.064.181-1.526.583s-.742 1.144-.702 2.087l-3.051-.421c.02-2.148.963-3.593 2.308-4.356.903-.522 1.927-.743 3.031-.743 1.606 0 2.99.542 3.854 1.405.863.843 1.365 2.028 1.365 3.312 0 1.064-.301 1.987-.883 2.71-.562.743-1.205 1.305-2.088 1.806l-2.288 1.406c-.883.521-1.365 1.003-1.485 1.445h6.824z"/></svg>