<svg xmlns="http://www.w3.org/2000/svg" width="26" height="16" fill="none"><g clip-path="url(#a)"><path fill="#FF5F00" d="M9.476 1.712h7.023v12.582H9.476z"/><path fill="#EB001B" d="M9.922 8.003a8.02 8.02 0 0 1 3.054-6.291A8 8 0 0 0 8.026 0C3.59 0 0 3.579 0 8.003s3.59 8.003 8.026 8.003c1.873 0 3.59-.645 4.95-1.712a7.98 7.98 0 0 1-3.054-6.291"/><path fill="#F79E1B" d="M25.974 8.003c0 4.424-3.59 8.003-8.026 8.003a8 8 0 0 1-4.95-1.712 7.95 7.95 0 0 0 3.055-6.291 8.02 8.02 0 0 0-3.055-6.291A8 8 0 0 1 17.948 0c4.437 0 8.026 3.601 8.026 8.003"/></g><defs><clipPath id="a"><path fill="#fff" d="M0 0h26v16H0z"/></clipPath></defs></svg>