<svg xmlns="http://www.w3.org/2000/svg" viewBox="0 0 784.74 268.71"><defs><style>.cls-1{fill:#fff;}.cls-2{fill:#c7c8ca;}.cls-3{fill:#a7a9ac;}.cls-4{fill-rule:evenodd;}</style></defs><g id="Layer_2" data-name="Layer 2"><g id="Layer_1-2" data-name="Layer 1"><path class="cls-1" d="M134.35,10.55a123.81,123.81,0,1,0,0,247.61h516a123.81,123.81,0,0,0,0-247.62h-516Z"/><path class="cls-2" d="M650.39,268.71h-516C60.27,268.71,0,208.43,0,134.35S60.27,0,134.35,0h516c74.08,0,134.35,60.27,134.35,134.35S724.47,268.71,650.39,268.71m-516-258.16a123.81,123.81,0,1,0,0,247.61h516a123.81,123.81,0,0,0,0-247.62h-516Z"/><polygon class="cls-3" points="753.49 0 753.49 3.4 748.52 3.4 748.52 20.1 744.64 20.1 744.64 3.4 739.77 3.4 739.77 0 753.49 0"/><polygon class="cls-3" points="756.27 20.1 756.27 0 761.51 0 765 13.16 768.54 0 773.84 0 773.84 20.1 770.64 20.1 770.64 4.38 770.55 4.38 766.49 20.1 763.65 20.1 759.55 4.38 759.47 4.38 759.47 20.1 756.27 20.1"/><path class="cls-3" d="M258.38,219.35l4.73-7.36a28.17,28.17,0,0,0,16.65,5.48c6.83,0,11.05-3.1,11.05-8.48,0-6.19-5.33-7.83-14.09-10.88-7.86-2.76-15.59-6.72-15.59-17.85,0-10.44,8.23-16.12,19.3-16.12,7.35,0,12.78,1.45,17.14,4L293.79,176a28.3,28.3,0,0,0-13.19-3.2c-6.16,0-9.86,2.33-9.86,7.22,0,5.75,4.28,7.21,12.35,9.86,8.4,2.72,17.66,6.61,17.66,18.95,0,10.43-7.46,17.31-20.85,17.31-9.93,0-17.23-3.43-21.52-6.78"/><polygon class="cls-3" points="318.7 165.09 354.53 165.09 354.53 173.42 328.9 173.42 328.9 189.86 349.14 189.86 349.14 198.01 328.9 198.01 328.9 217.02 356.09 217.02 356.09 225.34 318.7 225.34 318.7 165.09"/><path class="cls-3" d="M370.68,195.26c0-17.58,8.42-31.11,25.22-31.11,7.52,0,13.47,2.39,17.66,7.26l-5.95,6.89c-3.59-3.53-6.64-5.25-11.54-5.25-9.87,0-14.42,8.07-14.42,23,0,14,4.81,21.09,14.51,21.09,5.38,0,9.17-2.83,12.49-6.35l6,6.7c-4.36,5.15-9.83,8.66-18.58,8.66-17.33,0-25.39-13.21-25.39-30.87"/><path class="cls-3" d="M431.26,202.28V165.09h10.28v38.85c0,8.28,2,13.71,10.79,13.71s10.81-5.43,10.81-13.71V165.09h10.38v37.19c0,14.93-5.74,23.85-21.27,23.85-15.26,0-21-8.92-21-23.85"/><path class="cls-3" d="M536.4,225.35H525.26l-11.57-25.56h-9.52v25.56H494V165.09h19.65c12.17,0,21.67,4.36,21.67,17.57,0,9-5.4,13.53-11.41,15.68Zm-23.15-33.43c7.64,0,11.57-2.48,11.57-9.44,0-6.69-4-9.07-11-9.07h-9.69v18.51Z"/><polygon class="cls-3" points="553.85 165.09 589.68 165.09 589.68 173.42 564.04 173.42 564.04 189.86 584.26 189.86 584.26 198.01 564.04 198.01 564.04 217.02 591.22 217.02 591.22 225.34 553.85 225.34 553.85 165.09"/><path class="cls-3" d="M608.44,165.09h15c19.64,0,29.08,10.63,29.08,29.91,0,19.64-9.61,30.35-28.56,30.35H608.44ZM622.9,217c14.06,0,18.87-6.49,18.87-22,0-13.63-3.77-21.59-17.6-21.59h-5.48V217Z"/><path class="cls-4" d="M212.49,63.64l.71,4.48a81.92,81.92,0,0,1,.72,12.46,117,117,0,0,1-3.23,27.34A105.81,105.81,0,0,1,195.9,142c-8,11.84-19.54,23.4-36.3,32.9l-2.07,1.17-2.06-1.17c-16.76-9.32-28.32-21-36.3-32.9a102.66,102.66,0,0,1-14.79-34.06,116.47,116.47,0,0,1-3.23-27.34,96.31,96.31,0,0,1,.72-12.46l.62-4.48a2.19,2.19,0,0,0,0-1.08,2.07,2.07,0,0,0-.44-1,2.7,2.7,0,0,0-.72-.71,3.76,3.76,0,0,0-.9-.36,2.15,2.15,0,0,0-1.07,0,3.33,3.33,0,0,0-1,.45,2.7,2.7,0,0,0-.72.71,5.07,5.07,0,0,0-.36,1.08l-.71,4.48a109.78,109.78,0,0,0-.81,13.36,123.66,123.66,0,0,0,3.41,28.68,113.24,113.24,0,0,0,6.18,18.65A106.71,106.71,0,0,0,153,179.63l3.32,1.89a3.49,3.49,0,0,0,2.69,0l3.32-1.89a110.36,110.36,0,0,0,38.18-34.51,108.35,108.35,0,0,0,15.6-35.86,123.58,123.58,0,0,0,3.32-28.68,112.38,112.38,0,0,0-.81-13.45l-.71-4.48a5.07,5.07,0,0,0-.36-1.08,2.7,2.7,0,0,0-.72-.71,3.33,3.33,0,0,0-1-.45,2.15,2.15,0,0,0-1.07,0,5.07,5.07,0,0,0-1.08.36,2.7,2.7,0,0,0-.72.71,3.58,3.58,0,0,0-.44,1Z"/><path class="cls-4" d="M117.55,60.59,157.71,48l41,12.91a4.38,4.38,0,0,0,1.08.09,2.36,2.36,0,0,0,1.07-.27,2.29,2.29,0,0,0,.9-.72,1.45,1.45,0,0,0,.45-1,4.26,4.26,0,0,0,.09-1.07,2.4,2.4,0,0,0-.27-1.08,3,3,0,0,0-.63-.89,1.45,1.45,0,0,0-1-.45L158.52,42.21a2.47,2.47,0,0,0-1.61,0L116,55.12a4.82,4.82,0,0,0-1,.45,2.06,2.06,0,0,0-.62.89,2.4,2.4,0,0,0-.27,1.08,4.38,4.38,0,0,0,.09,1.08,3.65,3.65,0,0,0,.44,1,2.45,2.45,0,0,0,.9.72,1.92,1.92,0,0,0,1.08.27A1.47,1.47,0,0,0,117.55,60.59Z"/><path class="cls-4" d="M97.74,64.44,155.2,180.26a2.65,2.65,0,0,0,.9,1.08,2.74,2.74,0,0,0,2.87,0,3,3,0,0,0,1.07-1.08l35.06-67.68.09-.09L217.6,64.35a2.36,2.36,0,0,0,.27-1.07,2.28,2.28,0,0,0-.18-1.08,2.15,2.15,0,0,0-.54-1,3.26,3.26,0,0,0-.81-.71,1.91,1.91,0,0,0-1.07-.27,4.38,4.38,0,0,0-1.08.09,2.15,2.15,0,0,0-1,.54,2,2,0,0,0-.62.89l-22.41,48.14-32.64,63-55-111.16c-.18-.27-.44-.62-.62-.89a2.15,2.15,0,0,0-1-.54,1.51,1.51,0,0,0-1.08-.09,2.39,2.39,0,0,0-1.07.27,3.26,3.26,0,0,0-.81.71,3.33,3.33,0,0,0-.45,1,2.22,2.22,0,0,0-.09,1.08A4.38,4.38,0,0,0,97.74,64.44Z"/><path class="cls-4" d="M125.26,116.08h64a4.36,4.36,0,0,0,1.07-.18,1.44,1.44,0,0,0,.81-.63,1.87,1.87,0,0,0,.54-.9,3,3,0,0,0,0-2.15,2.83,2.83,0,0,0-.54-.89,5,5,0,0,0-.81-.63,4.36,4.36,0,0,0-1.07-.18h-64a4.44,4.44,0,0,0-1.07.18,1.44,1.44,0,0,0-.81.63,1.79,1.79,0,0,0-.54.89,3,3,0,0,0,0,2.15,1.87,1.87,0,0,0,.54.9,5,5,0,0,0,.81.63C124.55,116,124.9,116,125.26,116.08ZM303.65,92H262.06a4.52,4.52,0,0,0-1.08.18,1.45,1.45,0,0,0-.8.63,1.87,1.87,0,0,0-.54.9,4.36,4.36,0,0,0-.18,1.07v34.51a4.52,4.52,0,0,0,.18,1.08,1.87,1.87,0,0,0,.54.9,4.33,4.33,0,0,0,.8.62,4.52,4.52,0,0,0,1.08.18h41.59v5.83H262.06a9.68,9.68,0,0,1-1.61-.18,10.88,10.88,0,0,1-1.62-.45,7.63,7.63,0,0,1-1.43-.71c-.45-.36-.81-.72-1.26-1.08a9,9,0,0,1-1.79-2.69,10.76,10.76,0,0,1-.45-1.61,9.92,9.92,0,0,1-.18-1.62V94.83a9.8,9.8,0,0,1,.18-1.61,10.88,10.88,0,0,1,.45-1.62,8.18,8.18,0,0,1,.72-1.52,4.51,4.51,0,0,1,1.07-1.25,15.67,15.67,0,0,1,1.26-1.08,7.09,7.09,0,0,1,1.43-.72,10.88,10.88,0,0,1,1.62-.45,9.68,9.68,0,0,1,1.61-.18h41.59V92Zm78.08-5.82V92H341.66v17.12h32.19V115H341.66v17.12h40.07V138H336.11V86.14Z"/><path d="M464.3,94.92v15.15a9.68,9.68,0,0,1-.18,1.61,10.88,10.88,0,0,1-.45,1.62,7.89,7.89,0,0,1-.72,1.52,7.66,7.66,0,0,1-1.07,1.26,15.63,15.63,0,0,1-1.26,1.07,7.36,7.36,0,0,1-1.43.72l-1.62.54a9.8,9.8,0,0,1-1.61.18h-7.62L464,137.86H456.5l-15.6-19.27H422.61a13.71,13.71,0,0,1-2.69-.27v19.54h-5.65V86.23h41.78a11,11,0,0,1,1.61.17,10.88,10.88,0,0,1,1.62.45,4.63,4.63,0,0,1,1.43.81A9.19,9.19,0,0,1,463,90a8.18,8.18,0,0,1,.72,1.52,10.88,10.88,0,0,1,.45,1.62A13.39,13.39,0,0,1,464.3,94.92Zm-41.78,17.93H456a4.36,4.36,0,0,0,1.07-.18,1.14,1.14,0,0,0,.81-.63,1.84,1.84,0,0,0,.54-.89,4.52,4.52,0,0,0,.18-1.08V94.92a3.12,3.12,0,0,0-.72-2,2.51,2.51,0,0,0-1.88-.9H422.52a4.36,4.36,0,0,0-1.07.18,1.44,1.44,0,0,0-.81.63,1.87,1.87,0,0,0-.54.9,4.36,4.36,0,0,0-.18,1.07V110a2.52,2.52,0,0,0,.9,2A2.16,2.16,0,0,0,422.52,112.85Z"/><path class="cls-4" d="M494.24,86.14h50V92H522.12v45.9h-5.65V92H494.24ZM574.74,138V86.23h5.64V138ZM655.6,86.14h7.26L642,112,663,138H655.6L637,115H620.81V138h-5.64V86.23h5.73v22.94H637Z"/></g></g></svg>