<svg width="120" height="34" viewBox="0 0 120 34" fill="none" xmlns="http://www.w3.org/2000/svg">
<path fill-rule="evenodd" clip-rule="evenodd" d="M0 17.431C0 7.79167 7.79964 0 17.4479 0C27.0671 0 34.8954 7.79167 34.8668 17.431C34.8668 25.1363 29.8693 31.6583 22.9364 33.9674C22.07 34.1406 21.7521 33.592 21.7521 33.1302C21.7521 32.9387 21.7553 32.6041 21.7595 32.157C21.768 31.257 21.7807 29.9014 21.7807 28.3397C21.7807 26.6946 21.2321 25.6558 20.5964 25.1076C24.4964 24.6744 28.5693 23.2029 28.5693 16.5074C28.5693 14.6026 27.905 13.0443 26.7782 11.8324C26.9514 11.3996 27.5586 9.60996 26.605 7.21473C26.605 7.21473 25.1318 6.7529 21.8096 9.00398C20.4229 8.62892 18.9211 8.42669 17.4479 8.42669C15.9746 8.42832 14.5079 8.62242 13.0857 9.00398C9.76393 6.7529 8.29071 7.21473 8.29071 7.21473C7.33714 9.60996 7.94393 11.3996 8.11714 11.8324C7.01929 13.0443 6.32643 14.6026 6.32643 16.5074C6.32643 23.2029 10.3993 24.7035 14.2704 25.1076C13.7793 25.5404 13.3168 26.3195 13.1725 27.4451C12.1614 27.9069 9.64821 28.657 8.08857 26.0022C8.08857 26.0022 7.16393 24.3284 5.40179 24.213C5.40179 24.213 3.6975 24.213 5.28607 25.2808C5.28607 25.2808 6.44179 25.8 7.22179 27.8201C7.22179 27.8201 8.2325 30.9372 13.0861 29.898C13.0861 30.8419 13.0983 31.7608 13.1067 32.3968C13.1112 32.7334 13.1146 32.9907 13.1146 33.1305C13.1146 33.592 12.7971 34.1406 11.9304 33.9671C4.9975 31.6586 0 25.1363 0 17.431ZM50.1892 17.3005H56.5274C56.691 17.3005 56.8235 17.442 56.8235 17.6162V27.9126C56.8235 27.9715 56.8141 28.1007 56.7274 28.1518C56.7274 28.1518 54.6241 29.7301 51.1569 29.7301C46.9693 29.7301 42 28.3563 42 19.137C42 9.91766 46.3405 8 50.5716 8C54.2446 8 55.6986 8.8667 55.9369 9.04785C56.024 9.11456 56.05 9.21249 56.05 9.29437L55.343 12.4839C55.343 12.6583 55.1725 12.854 54.988 12.7937C54.9291 12.7743 54.8667 12.7527 54.8 12.7297C54.2034 12.5235 53.2639 12.1988 51.3382 12.1988C48.8653 12.1988 46.2311 12.9785 46.2311 18.9059C46.2311 24.8318 48.7608 25.5367 50.5716 25.5367C52.1066 25.5367 52.6617 25.3351 52.6617 25.3351V21.2336H50.1892C50.0257 21.2336 49.8931 21.0917 49.8931 20.9175V17.6162C49.8931 17.442 50.0257 17.3005 50.1892 17.3005ZM89.8733 8.63962C90.0409 8.63962 90.1746 8.78073 90.1746 8.95587V28.7745C90.1742 28.9495 90.0405 29.0915 89.873 29.0915H86.2115C86.0443 29.0915 85.9088 28.9495 85.9088 28.7745L85.9189 20.2972H80.2247V28.7745C80.2247 28.9495 80.0905 29.0915 79.9233 29.0915H76.2706C76.1044 29.0915 75.9688 28.9495 75.9688 28.7745V8.95587C75.9688 8.78073 76.1044 8.63962 76.2706 8.63962H79.9233C80.0905 8.63962 80.2247 8.78073 80.2247 8.95587V16.2751H85.9189L85.9178 8.95587C85.9178 8.78073 86.0535 8.63962 86.2203 8.63962H89.8733ZM63.6126 11.833C63.6126 10.4197 62.6449 9.27756 61.4507 9.27756C60.2578 9.27756 59.2891 10.4197 59.2891 11.833C59.2891 13.2451 60.2578 14.3905 61.4507 14.3905C62.6449 14.3905 63.6126 13.2451 63.6126 11.833ZM63.6126 15.3489V24.5638V28.5818C63.6126 28.9068 63.523 29.0915 63.1575 29.0915H59.8279C59.524 29.0915 59.2891 28.976 59.2891 28.5881V15.3857C59.2891 15.2108 59.4407 15.0308 59.6101 15.0308H63.3059C63.4753 15.0308 63.6126 15.1739 63.6126 15.3489ZM104.081 15.0303H100.469C100.303 15.0303 100.168 15.1761 100.168 15.3555V25.3175C100.168 25.3175 99.2503 26.0338 97.9476 26.0338C96.6451 26.0338 96.2995 25.4034 96.2995 24.0432V15.3555C96.2995 15.1761 96.1649 15.0303 95.9989 15.0303H92.3323C92.1669 15.0303 92.0312 15.1761 92.0312 15.3555V24.7007C92.0312 28.7416 94.1427 29.7301 97.0474 29.7301C99.4306 29.7301 101.352 28.3258 101.352 28.3258C101.352 28.3258 101.443 29.066 101.485 29.1535C101.526 29.241 101.634 29.3297 101.751 29.3297L104.083 29.3185C104.249 29.3185 104.384 29.1726 104.384 28.994L104.383 15.3555C104.383 15.1761 104.248 15.0303 104.081 15.0303ZM110.472 25.4476C110.472 25.4476 111.334 26.0465 112.605 26.0866C114.382 26.1421 114.956 25.4622 114.956 22.017C114.956 18.7497 113.685 18.3359 112.365 18.4587C111.322 18.5554 110.472 19.0965 110.472 19.0965V25.4476ZM110.554 15.7502C110.554 15.7502 111.969 14.7865 114.049 14.7865C116.131 14.7865 119.213 15.5944 119.213 21.7764C119.213 27.9584 117.283 29.7301 113.919 29.7301C111.054 29.7301 109.54 28.2407 109.54 28.2407C109.54 28.2407 109.448 29.0577 109.384 29.1657C109.319 29.2738 109.232 29.3357 109.116 29.3357H106.548C106.379 29.3357 106.242 29.192 106.242 29.0149V8.95917C106.242 8.78195 106.379 8.63913 106.547 8.63913H110.249C110.417 8.63913 110.554 8.78195 110.554 8.95917V15.7502ZM73.7716 15.2131H71.0994L71.0954 11.4115C71.0954 11.2674 71.0264 11.1956 70.872 11.1956H67.2307C67.089 11.1956 67.0131 11.2627 67.0131 11.4092V15.3378C67.0131 15.3378 65.1883 15.8123 65.0648 15.8504C64.9421 15.8889 64.8516 16.0109 64.8516 16.1566V18.6253C64.8516 18.8029 64.9833 18.9461 65.1461 18.9461H67.0131V24.8853C67.0131 29.2967 69.8864 29.7301 71.8251 29.7301C72.7112 29.7301 73.771 29.4235 73.9459 29.3541C74.0517 29.3121 74.1131 29.1941 74.1131 29.066L74.1163 26.3503C74.1163 26.1734 73.9773 26.0298 73.8209 26.0298C73.7616 26.0298 73.6671 26.0397 73.5503 26.052L73.5495 26.0521L73.5491 26.0521C73.3591 26.0721 73.1102 26.0982 72.8567 26.0982C71.544 26.0982 71.0994 25.4409 71.0994 24.5902L71.0992 18.9461H73.7716C73.9344 18.9461 74.0663 18.8029 74.0663 18.6253V15.533C74.0663 15.3558 73.9344 15.2131 73.7716 15.2131Z" fill="#565656"/>
</svg>
