<svg xmlns="http://www.w3.org/2000/svg" width="25" height="24" viewBox="0 0 25 24">
    <g fill="none" fill-rule="evenodd">
        <g fill="#8B95A9" fill-rule="nonzero">
            <g>
                <path d="M16.11 6.947l.99.99-9.108 9.108-.99-.99 9.109-9.108zm.377 2.331l.23.207c.502.462.956.956 1.356 1.45l.218.276.236.32.316.469-.316.469-.145.2-.091.12-.218.276c-.4.494-.854.988-1.356 1.45C15.243 15.873 13.659 16.7 12 16.7c-.81 0-1.604-.198-2.375-.558l1.075-1.075c.437.153.871.233 1.3.233 1.24 0 2.528-.673 3.768-1.815.337-.31.65-.637.938-.968l.278-.332.146-.186-.146-.184c-.359-.443-.767-.887-1.216-1.3-.09-.084-.182-.165-.274-.244l.993-.993zM12 7.3c.812 0 1.605.198 2.377.56L13.3 8.932C12.864 8.781 12.43 8.7 12 8.7c-1.24 0-2.528.673-3.768 1.815-.337.31-.65.637-.938.968l-.278.332-.147.184.147.186c.359.443.767.887 1.216 1.3l.276.246-.994.991-.23-.207c-.402-.37-.773-.76-1.11-1.154l-.247-.296-.218-.276-.236-.32L5.157 12l.316-.469.145-.2.091-.12.218-.276c.4-.494.854-.988 1.356-1.45C8.757 8.127 10.341 7.3 12 7.3zm2 4.73c-.015 1.04-.826 1.89-1.852 1.965l-.119.003 1.97-1.969z" transform="translate(-870 -547) translate(871 547)"/>
            </g>
        </g>
    </g>
</svg>
