<svg xmlns="http://www.w3.org/2000/svg" width="25" height="24" viewBox="0 0 25 24">
    <g fill="none" fill-rule="evenodd">
        <g fill="#8B95A9" fill-rule="nonzero">
            <g>
                <g>
                    <g>
                        <path d="M12 7.3c1.659 0 3.243.827 4.717 2.185.502.462.956.956 1.356 1.45l.218.276c.097.126.176.234.236.32l.316.469-.316.469-.145.2-.091.12-.218.276c-.4.494-.854.988-1.356 1.45C15.243 15.873 13.659 16.7 12 16.7c-1.659 0-3.243-.827-4.717-2.185-.502-.462-.956-.956-1.356-1.45l-.218-.276c-.097-.126-.176-.234-.236-.32L5.157 12l.316-.469.145-.2.091-.12.218-.276c.4-.494.854-.988 1.356-1.45C8.757 8.127 10.341 7.3 12 7.3zm0 1.4c-1.24 0-2.528.673-3.768 1.815-.337.31-.65.637-.938.968l-.278.332-.147.184.147.186c.359.443.767.887 1.216 1.3C9.472 14.627 10.759 15.3 12 15.3c1.24 0 2.528-.673 3.768-1.815.337-.31.65-.637.938-.968l.278-.332.146-.186-.146-.184c-.359-.443-.767-.887-1.216-1.3C14.528 9.373 13.241 8.7 12 8.7zm0 1.3c1.105 0 2 .895 2 2s-.895 2-2 2-2-.895-2-2 .895-2 2-2z" transform="translate(-870 -441) translate(535 405) translate(0 28) translate(336 8)"/>
                    </g>
                </g>
            </g>
        </g>
    </g>
</svg>
