<svg width="128" height="128" viewBox="0 0 128 128" fill="none" xmlns="http://www.w3.org/2000/svg">
<g clip-path="url(#clip0_7084_35533)">
<path d="M30.0713 57.0428C38.8549 52.7953 43.1086 44.5393 54.2124 44.5577C65.3163 44.5761 70.1777 50.9566 77.8196 57.1715C79.2743 58.3484 81.1894 56.528 79.9004 55.0938C72.3321 46.5987 64.6165 40.8986 52.7393 41.487C43.7899 41.9283 33.0912 48.2168 29.703 56.7486C29.6109 56.9693 29.9055 57.1164 30.0713 57.0244V57.0428Z" fill="#60E198"/>
<path d="M32.6125 52.2989C30.9552 53.6412 29.4084 55.0938 27.9353 56.6568C27.5854 57.0061 27.5854 57.6129 27.9353 57.9623C35.6324 65.7035 44.7107 73.2607 56.2933 72.7827C66.0897 72.3781 75.2048 66.5493 79.6795 57.8704C80.2872 56.6752 78.6299 55.1674 77.7092 56.3442C71.522 64.3244 64.1931 70.6313 53.3102 69.7671C46.1286 69.1971 27.125 61.7134 32.944 52.5564C33.0913 52.3357 32.7782 52.1334 32.5941 52.2989H32.6125Z" fill="#60E198"/>
<path d="M50.6401 44.1885C42.8509 42.552 38.2105 50.2012 38.9102 57.2252C39.4442 62.5576 45.3736 72.7259 52.0396 70.8136C52.6657 70.6298 52.8867 69.6368 52.2422 69.3242C47.5281 67.0626 43.2744 64.5803 41.7644 59.0824C39.923 52.3341 43.5506 45.5675 50.6586 44.5378C50.8427 44.5194 50.8243 44.2068 50.6586 44.1701L50.6401 44.1885Z" fill="#60E198"/>
<path d="M61.4127 44.3914C67.3974 48.3079 68.226 56.6926 65.1876 62.7789C62.315 68.5158 57.4905 69.2513 51.7452 68.9388C50.8797 68.8836 50.714 70.0236 51.3401 70.4649C57.7483 74.8596 65.961 68.6078 68.3917 62.6134C71.1355 55.8284 69.7912 45.8624 61.6889 43.8397C61.339 43.7478 61.1549 44.2259 61.4495 44.4098L61.4127 44.3914Z" fill="#60E198"/>
<path d="M52.6107 48.9864C49.8669 48.9129 47.0127 50.4207 45.9999 53.0869C44.8582 56.1208 47.2889 58.4928 50.3457 57.8492C53.071 57.2608 55.7964 54.6314 55.7595 51.7262C55.7595 50.3287 54.9493 49.0048 53.5682 48.5819C51.9294 48.0855 50.4378 48.821 49.4802 50.1081C49.112 50.6046 49.6091 51.3584 50.18 51.3401C50.5667 51.3217 50.9718 51.3401 51.3585 51.2665C51.8004 51.193 52.1503 50.9171 52.6291 51.0091C53.513 51.193 53.3473 52.1675 53.0158 52.8662C52.4081 54.1901 50.7877 55.4773 49.2961 55.4956C47.1969 55.5324 48.357 52.9765 49.1672 52.1123C50.1247 51.0826 51.5979 50.3287 52.7948 49.6116C53.0895 49.4278 52.9606 48.9864 52.6291 48.9681L52.6107 48.9864Z" fill="#60E198"/>
<path d="M51.0448 56.3612C49.9031 56.1038 49.3138 57.1519 49.1665 58.1632C48.9271 59.91 50.2714 61.6385 51.7077 62.4843C54.6724 64.2311 59.7731 62.6498 61.0253 59.3768C62.167 56.398 60.6754 51.3598 56.9926 51.0104C55.1511 50.8266 53.7332 52.0585 52.7389 53.4928C52.2049 54.265 51.8366 55.258 51.1 55.8831C50.4187 56.4715 49.5164 56.6186 49.2402 57.6116C48.7798 59.1561 50.4003 60.8294 51.5972 61.4913C53.0151 62.3004 54.8749 62.4475 56.3481 61.6936C59.1839 60.241 60.565 54.7431 56.9005 53.2905C53.2361 51.8379 50.787 58.3103 53.7332 60.0203C57.011 61.9327 59.1839 54.7247 55.188 54.9086C53.3097 55.0005 52.0023 57.4645 52.0391 59.1561C52.0944 61.3994 54.5803 61.9694 55.9798 60.4065C57.0662 59.1929 57.324 56.8209 55.6667 55.9567C53.4386 54.7983 51.5604 57.3174 50.787 59.0826C50.3266 60.1491 51.1368 61.951 52.5547 61.381C53.9726 60.811 55.5747 59.7445 55.1511 57.9609C54.8013 56.4715 52.9783 55.5706 51.7077 56.5635C49.0008 58.6597 52.4258 63.4588 54.5251 60.3513C54.8013 59.9284 54.746 59.1377 54.3225 58.8068C54.0279 58.6045 53.7517 58.3655 53.5123 58.108C52.9046 57.538 51.634 57.6851 51.4683 58.6413C51.3578 59.3032 51.3394 59.6894 51.7629 60.241C52.2417 60.8846 53.4018 61.142 53.8253 60.241L54.0831 59.6894C54.3593 59.1194 54.0279 58.5861 53.4018 58.5126L52.7757 58.439L53.8069 59.0274V59.2848C53.1256 59.4687 52.4442 59.6526 51.7629 59.8181C52.0391 60.0571 52.2785 60.3145 52.5179 60.5904L52.7757 58.6045C53.3281 58.9539 53.7148 58.9171 53.899 58.4942L52.9967 59.1929L51.7077 58.3655L53.4754 60.6639C53.6964 60.1491 54.1199 58.7884 54.8565 58.8803L53.7517 58.4206L53.6228 58.2735L54.8381 58.439L54.4698 58.2551L55.188 59.1929C55.188 58.5861 55.4458 58.1448 55.9614 57.8322L54.746 57.9977L54.4882 57.1335L55.5931 57.5932C55.3537 57.299 55.9614 55.6993 56.0719 57.3174C56.1087 57.8506 55.722 58.5677 55.3353 58.8803C54.1936 59.7997 52.1864 59.1194 51.9655 57.6483L51.5972 59.0458C52.076 58.4574 52.923 58.1448 53.4386 57.538C53.9542 56.9312 54.3041 56.2877 54.6908 55.6441C55.2248 54.7615 55.9614 53.4376 57.1951 53.9892C58.1343 54.4121 58.613 56.0486 58.6683 56.9864C58.7972 59.2848 56.7348 60.4065 54.6908 60.7926C53.2913 61.0684 51.9286 60.4249 51.2105 59.1929C50.6949 58.3287 50.9711 57.4461 51.0632 56.5083C51.0632 56.4715 51.0263 56.4348 50.9895 56.4164L51.0448 56.3612Z" fill="#60E198"/>
<path d="M52.2786 24.0741C42.4454 24.9015 36.3134 27.6964 29.8684 34.8859C23.4234 42.0755 20.6428 50.7912 21.8029 59.9298C24.2152 79.1632 43.0531 90.4531 61.541 86.9411C80.6183 83.3004 92.0536 63.0557 85.4428 44.7601C79.6791 28.7997 58.4843 18.1533 42.5006 25.6002C41.2853 26.1702 42.1692 27.9538 43.3845 27.678C59.8469 24.0005 78.7952 30.2891 83.6935 48.1066C88.1866 64.5083 77.4694 81.2961 60.8229 84.2565C43.2004 87.4008 25.3017 75.8718 24.5835 57.2268C24.252 48.695 28.119 41.1009 33.7354 34.9227C38.873 29.2777 45.0418 27.0161 52.4628 25.2325C53.1073 25.0854 52.9968 24.0005 52.297 24.0557L52.2786 24.0741Z" fill="#60E198"/>
<path d="M51.6903 16.0384C38.8187 17.1784 30.8637 21.1133 22.7246 30.9139C15.5614 39.5561 12.1179 50.607 13.72 61.7682C17.2371 86.2237 42.0044 99.9776 65.3353 94.4061C88.6663 88.8347 101.538 63.2944 92.7911 41.1006C85.2044 21.8305 59.0561 8.94078 39.5 18.0794C38.3031 18.6494 39.1686 20.4514 40.3839 20.1572C58.6141 15.6522 79.7353 21.3708 88.8688 39.0228C99.6965 59.9846 87.6351 86.4259 64.6172 91.7399C41.5993 97.0539 18.1763 82.9691 16.4085 58.9917C15.5983 48.0511 20.2387 37.8644 27.5123 29.8842C34.3993 22.3637 41.8755 19.3297 51.8376 17.2152C52.4821 17.0681 52.3532 15.9832 51.6719 16.0384H51.6903Z" fill="#60E198"/>
<path d="M35.0802 12.8542C31.6552 12.321 27.6408 15.3917 24.9892 17.2673C21.5089 19.7128 18.581 22.4709 16.316 26.0749C15.8373 26.8288 16.85 27.4356 17.4577 26.9575C20.7539 24.3281 23.9211 21.4412 27.4015 19.0325C29.869 17.3224 33.6807 15.9801 35.3012 13.4059C35.4117 13.222 35.3012 12.891 35.0802 12.8542Z" fill="#60E198"/>
<path d="M101.077 48.785C100.709 51.5432 100.985 54.3932 101.04 57.1881C101.096 60.4243 100.783 63.5318 100.396 66.7497C100.212 68.2023 102.606 68.4965 102.937 67.099C104.208 61.8218 104.226 53.6945 101.777 48.7115C101.648 48.4357 101.132 48.4724 101.077 48.8034V48.785Z" fill="#60E198"/>
<path d="M77.6905 87.7685C77.3959 88.5223 77.9851 89.0924 78.4455 89.644C78.9059 90.1956 79.5504 91.023 80.3238 90.9679C80.8209 90.9311 81.2076 90.5082 81.0787 89.975C80.8946 89.2762 80.1028 88.9453 79.5872 88.4856C79.0716 88.0259 78.7585 87.4742 78.022 87.4926C77.8562 87.4926 77.7458 87.603 77.6905 87.7501V87.7685Z" fill="#60E198"/>
<path d="M86.5672 80.1347C86.512 80.9438 87.046 81.7528 87.5064 82.378C88.0588 83.0951 88.4639 83.7938 89.4215 83.9042C89.7345 83.9409 89.9371 83.6283 89.9555 83.3709C90.0476 82.4332 89.2926 81.7712 88.7033 81.146C88.1877 80.5944 87.5248 80.0244 86.7698 79.9141C86.6409 79.9141 86.5488 80.0244 86.5488 80.1347H86.5672Z" fill="#60E198"/>
<path d="M84.1729 87.345C74.0266 90.3973 87.7268 103.581 90.6731 106.505C95.6082 111.414 104.042 121.509 111.481 114.264C118.405 107.535 109.99 99.1866 105.736 94.0748C103.508 91.4086 101.261 89.2757 98.7386 86.9405C97.1918 85.5062 95.9764 83.4101 94.135 82.3252C91.3729 80.7071 88.666 81.1484 87.1007 83.9065C86.4931 84.9914 88.0583 86.3337 88.8869 85.2856C91.7227 81.7184 100.175 91.1328 102.035 93.1738C105.626 97.072 111.573 102.037 111.444 107.535C111.297 113.658 106.252 115.846 101.04 112.665C99.1437 111.506 97.4312 109.447 95.8475 107.939C91.9437 104.206 79.422 93.9829 84.4122 87.7679C84.5596 87.584 84.4122 87.2714 84.1729 87.345Z" fill="#60E198"/>
<path d="M89.6597 82.5269L89.2361 82.3798C88.7942 82.2143 88.3338 82.4166 88.0024 82.7108C85.6085 84.7702 81.9256 87.1238 80.8208 90.2497C80.1579 92.1436 80.3788 95.343 82.8279 95.7108C83.2883 95.7843 83.8039 95.5269 83.7855 94.9753C83.7118 92.7688 83.6198 91.4632 85.1481 89.6429C86.6765 87.8225 88.2786 86.2412 89.7886 84.5127C90.0832 84.1818 90.2673 83.7221 90.12 83.2808C90.0095 82.9866 89.9727 82.674 89.6597 82.5453V82.5269Z" fill="#60E198"/>
<path d="M81.392 88.2835C81.1526 87.9525 80.9501 87.6583 80.6186 87.4009C79.9373 86.8677 78.6114 87.5848 79.2559 88.449C79.7531 89.0925 80.2503 89.5706 80.9501 89.9935C81.8892 90.5452 82.8099 89.2948 82.0918 88.5225C81.6682 88.0812 81.2447 87.6215 80.8212 87.1802C80.0294 86.3344 78.6483 87.4193 79.2191 88.4122C79.79 89.4051 81.2263 90.8945 82.4785 90.159C83.9332 89.3132 82.9388 87.1251 82.1102 86.2609C81.0974 85.1944 79.6795 86.5551 80.2135 87.7319C80.6002 88.5961 81.2815 89.1109 82.1838 89.3684C83.0861 89.6258 83.7122 88.9455 83.8043 88.1364C83.9148 87.1802 83.6754 86.316 83.0861 85.5621L80.9316 87.217C81.9076 88.118 82.681 89.5706 84.3015 88.7432C86.0508 87.8606 85.1669 85.9851 84.3751 84.7531C83.4544 83.3189 81.4288 84.275 81.7051 85.8747C81.926 87.1067 83.0125 88.2651 84.3751 87.8238C86.0324 87.2906 85.6273 85.5805 85.3143 84.3118L83.4728 86.1505C83.4728 86.1505 84.0437 86.7022 84.2646 86.7941C84.8171 87.0331 85.4063 87.0148 85.9403 86.7206C86.4007 86.4631 86.7322 86.0586 86.8979 85.5438C86.9716 85.3415 87.0084 85.0841 87.0084 84.8634C87.0084 84.6979 87.0084 84.5324 86.99 84.3669C86.9531 84.1279 86.9531 84.1095 86.99 84.2934L84.5961 84.606C84.8171 84.7715 85.0196 84.937 85.2406 85.1024C86.1797 85.838 87.3951 85.5805 87.8002 84.4221C88.058 83.705 88.058 83.043 87.8002 82.3443L84.9644 83.5395C85.3327 84.1279 85.7378 84.514 86.3086 84.8818C87.2478 85.4518 88.7946 84.7347 88.6657 83.5395C88.5736 82.6569 88.3526 82.0501 87.7265 81.3882C86.7874 80.3952 85.0196 81.1491 85.038 82.4914C85.038 83.4292 85.2038 84.0176 85.6641 84.845C86.0692 85.5621 87.2478 85.6173 87.6345 84.845C88.058 84.0176 88.2237 83.4476 88.1869 82.4914L85.4984 83.5947L85.5352 83.5211L87.8923 82.1788L87.6345 81.9766C86.7322 80.5975 84.0989 81.4617 84.7987 83.1718L84.8355 83.6131L87.1005 82.6937C86.8795 82.5282 86.6769 82.3627 86.4559 82.1972C85.7746 81.6824 84.7802 82.1237 84.3567 82.7488C84.1173 83.1166 84.0068 83.3556 83.9516 83.7969L83.9148 84.1647C83.8779 84.6979 84.0068 84.6979 84.3015 84.1647L85.4616 84.0176C85.2958 83.9808 84.6882 83.3372 84.2462 83.2821C83.1598 83.135 82.0918 83.9073 82.4048 85.1208C82.4969 85.4702 82.6442 85.8747 82.681 86.2425L83.1045 85.1944L82.9204 85.3966L83.97 84.9737C84.4856 85.5805 84.6698 85.6357 84.504 85.1392L81.834 86.2609C82.0549 86.5918 82.1654 87.1619 82.4785 86.7389L83.3439 86.077C83.749 85.9299 83.1045 85.4886 82.8467 85.3047C81.4841 84.2566 79.6795 85.8931 80.9132 87.2354C81.1895 87.4928 81.2815 87.8054 81.2079 88.1548L82.8283 86.9228C82.5521 86.9412 82.368 86.8125 82.2759 86.5367L80.3792 88.0077C80.7291 88.2099 80.8764 88.5225 80.8212 88.9454L81.5946 88.1732C81.9444 88.2283 81.926 88.1732 81.5577 88.0261C81.2815 87.9157 81.079 87.7135 80.9501 87.4561L79.348 88.688C79.8084 89.0925 80.2687 89.5155 80.7107 89.92L81.8524 88.449C81.3368 88.1916 80.9501 87.9157 80.5634 87.4744L79.7163 88.9087C80.1767 88.9822 80.5265 88.9822 81.0053 88.9087C81.2631 88.8719 81.5209 88.5961 81.3368 88.3387L81.392 88.2835Z" fill="#60E198"/>
<path d="M93.2879 84.7688C94.6322 90.2299 95.8291 94.2568 94.3192 99.9937C93.6194 102.605 92.1463 105.216 93.7667 107.68C94.1534 108.268 95.2215 108.084 95.1846 107.294C94.9821 102.403 98.223 98.0263 98.1493 92.9881C98.0941 89.6048 96.8051 86.1111 93.7667 84.4011C93.5273 84.2724 93.2327 84.493 93.3064 84.7505L93.2879 84.7688Z" fill="#60E198"/>
<path d="M104.631 95.4704C105.331 99.4421 105.128 103.009 104.134 106.889C103.416 109.666 102.385 112.277 102.329 115.182C102.293 116.929 104.981 116.929 105.055 115.182C105.313 108.47 110.837 101.189 105.055 95.2313C104.871 95.0291 104.594 95.2313 104.631 95.4704Z" fill="#60E198"/>
<path d="M86.0882 86.6287C86.2723 88.7433 86.6406 90.8027 86.5669 92.9356C86.4749 95.3996 85.7015 97.7348 85.5173 100.18C85.4253 101.412 87.101 101.412 87.5061 100.456C89.1449 96.4293 90.0841 89.7546 86.7879 86.3345C86.5485 86.0955 86.0513 86.2609 86.0882 86.6287Z" fill="#60E198"/>
<path d="M62.334 77.8729C64.8568 79.2336 67.619 77.689 70.0128 76.6042C71.9463 75.7399 74.1008 74.8022 74.7821 72.6141C74.911 72.1911 74.6348 71.6027 74.156 71.5292C72.0752 71.1614 70.51 72.3566 68.7422 73.276C66.4773 74.4528 63.531 74.839 62.1315 77.1374C61.9842 77.3764 62.0762 77.7442 62.3156 77.8729H62.334Z" fill="#60E198"/>
<path d="M34.9143 45.5118C37.1977 44.6108 39.1865 43.2869 41.4146 42.2756C43.477 41.3378 46.2207 40.731 47.7675 38.9842C48.1542 38.5613 47.9701 37.9545 47.4545 37.7707C45.1159 36.9064 42.2617 38.2303 40.1808 39.3336C37.7133 40.6391 35.5957 42.0917 34.1041 44.4637C33.7911 44.9602 34.3251 45.7692 34.9328 45.5302L34.9143 45.5118Z" fill="#60E198"/>
</g>
<defs>
<clipPath id="clip0_7084_35533">
<rect width="100.8" height="104" fill="white" transform="translate(13.333 12.8008)"/>
</clipPath>
</defs>
</svg>
