<svg width="128" height="128" viewBox="0 0 128 128" fill="none" xmlns="http://www.w3.org/2000/svg">
<g clip-path="url(#clip0_7084_35521)">
<path d="M50.5958 55.5787C50.4625 55.5982 50.3292 55.6568 50.1959 55.7739C48.3298 57.179 46.2542 60.0673 44.0264 62.9557C40.8273 59.1501 36.8857 57.0814 32.8298 56.5935C34.4674 54.1931 36.5239 51.9878 38.2757 49.7435C39.4563 48.2213 40.8845 46.7576 40.218 44.6499C39.0374 40.8638 34.3531 39.3025 31.3445 41.5664C28.9262 43.4009 27.1363 46.3868 25.2511 48.7287C23.4231 50.9925 21.4237 53.1588 19.8623 55.6177C18.796 57.2961 16.6062 60.848 16.8347 63.4045C16.7394 63.5216 16.6252 63.6387 16.5109 63.7558C11.5601 69.7277 8.89422 77.0461 5.98083 84.1889C3.67677 89.8485 2.13438 94.4542 4.66694 100.348C8.43722 109.111 22.8138 113.482 30.7923 108.681C37.2856 104.759 40.2751 96.718 43.6265 90.1997C46.2923 85.0085 50.5387 79.5831 49.8722 73.5723C50.3673 72.9673 50.8624 72.3623 51.3384 71.7378C53.2616 69.2788 60.726 62.6825 58.879 58.5256C57.508 55.4421 53.3378 54.1736 50.6148 55.5592L50.5958 55.5787ZM21.1381 57.6084C23.2137 54.3102 26.0319 51.4609 28.5454 48.4945C29.5546 47.304 30.7161 45.2353 32.0491 44.4157C36.1811 42.6202 37.5902 43.6936 36.2383 47.6358C35.5718 48.4554 34.9053 49.2556 34.2579 50.0753C32.6394 52.0659 30.2401 54.037 29.4023 56.5545C26.0319 56.8668 22.6995 58.2329 19.7861 60.5552C20.167 59.5404 20.5859 58.5451 21.1571 57.6084H21.1381ZM37.7997 95.1568C33.5153 102.729 28.5073 109.423 18.834 106.769C12.1694 104.934 6.95196 100.543 6.83771 93.1271C6.7425 85.9453 12.3408 75.3482 16.3396 69.3764C20.3955 63.307 25.1559 58.1158 33.4582 59.8527C36.8857 60.5748 39.8752 62.7996 43.1885 63.9705C41.9698 65.5123 40.694 67.015 39.3802 68.264C35.2671 66.0002 30.2972 64.595 26.3746 66.7027C26.1651 66.7418 25.9747 66.8588 25.8414 67.0345C25.0607 67.5419 24.3181 68.1859 23.6326 69.0251C20.5097 72.9478 18.4342 78.6464 16.53 83.3107C15.2923 86.3161 12.6645 91.3121 12.7407 94.6689C12.8549 99.782 19.5767 103.412 24.1658 101.616C30.1258 99.2551 34.2389 87.9164 36.0098 82.1983C40.5036 81.8665 43.9692 79.6807 46.9778 76.6948C44.8071 83.135 41.0368 89.3996 37.7806 95.1568H37.7997ZM36.8476 70.2546C34.4293 71.6792 31.8777 71.7963 29.2309 69.3764C30.2591 69.1032 31.4778 69.0056 32.9821 69.1227C34.2389 69.2203 35.5718 69.7472 36.8476 70.2546ZM22.8138 76.7338C25.2702 80.2467 29.7069 82.0031 33.9342 82.2373C31.9539 85.9648 30.1068 89.868 27.6314 93.2637C25.5748 96.074 22.452 100.192 18.7769 98.0646C15.3684 96.0935 16.073 93.2637 17.2155 90.0046C18.796 85.4574 20.6811 81.0273 22.8328 76.7338H22.8138ZM53.7377 63.1313C53.2045 64.5365 51.4907 66.0782 50.5767 67.2882C48.2346 70.3522 46.0067 73.6503 42.9219 75.9532C36.105 81.0468 30.221 78.3732 24.0515 74.2944C24.9465 72.577 25.8795 71.0938 27.3838 70.157C29.9735 73.221 33.8771 74.47 37.952 72.7721C40.6179 71.6597 42.3888 69.3569 44.1787 67.1516C46.4447 64.3413 49.3581 61.6872 51.148 58.5061C54.0995 57.5888 54.6517 60.848 53.7758 63.1313H53.7377Z" fill="#60E198"/>
<path d="M119.278 22.9672C110.519 13.8143 96.4469 19.7666 86.5642 25.3481C84.0506 24.0991 81.1753 23.5527 78.4333 23.4551C73.5586 23.299 67.1225 23.2404 62.2668 25.0944C61.7717 25.0554 61.2576 25.1334 60.7244 25.4067C58.706 26.402 58.8964 29.3098 59.2963 31.1833C59.6581 32.9202 61.4671 35.3988 63.4664 34.7547C63.4664 34.7547 63.4664 34.7547 63.5045 34.7352C63.5997 34.7742 63.714 34.7938 63.8282 34.7938C67.1225 34.7938 70.3977 34.0326 73.6919 33.857C70.6071 38.0724 70.2644 43.4197 71.7877 48.3182C70.1692 48.1426 68.4364 48.4743 66.8178 48.4743C65.3516 48.4743 64.2852 48.4158 63.3522 49.6843C61.6003 52.0652 62.1526 56.6515 64.0187 58.8567C64.5328 59.4617 65.2564 59.6764 65.9609 59.5398C66.4751 59.6764 67.0463 59.6764 67.7318 59.735C69.4075 59.8716 71.0451 59.9106 72.7208 59.735C74.4155 59.5593 76.6624 59.1104 77.6907 57.6077C78.8332 58.6421 80.0899 59.5398 81.4419 60.2424C92.867 66.1752 109.471 56.1245 118.745 49.899C128.894 43.088 127.447 31.4566 119.297 22.9672H119.278ZM78.4523 26.1678C84.9646 26.8313 89.211 29.6416 90.582 36.5892C91.496 41.1949 89.7251 46.5032 86.3737 49.6258C84.4886 48.8061 83.289 47.2058 82.7368 45.2542C86.6022 41.8975 87.0402 36.277 82.4892 33.0959C77.9953 29.9538 71.6544 30.5783 66.2846 31.7688C66.4941 29.9929 65.8276 27.8266 64.647 26.441C69.2171 26.5386 73.9204 25.6994 78.4714 26.1678H78.4523ZM93.6287 34.9499C97.2276 34.0717 100.884 32.4128 104.483 31.7493C110.652 30.6369 113.508 34.7547 111.909 40.1801C110.881 43.6539 105.815 44.7859 103.016 45.8983C99.2841 47.3815 95.0378 49.6063 91.039 50.1722C90.4106 50.2503 89.8394 50.2893 89.2871 50.2698C93.2669 46.874 94.7141 40.4924 93.6096 34.9694L93.6287 34.9499ZM83.0033 38.7164C83.327 40.1606 83.1366 41.7414 82.413 43.2246C82.3178 41.7804 82.5273 40.2192 83.0033 38.7164ZM62.7238 32.9007C62.7238 32.9007 62.7238 32.9007 62.7238 32.9202C62.7238 32.9202 62.7238 32.9202 62.7048 32.9202C62.7048 32.9202 62.7238 32.9202 62.7429 32.9202L62.7238 32.9007ZM70.531 56.5929C69.8645 56.6515 69.0076 56.6905 68.1698 56.7881C68.3221 56.144 68.3983 55.4805 68.4935 54.8755C68.6649 53.607 68.6649 52.0652 68.2459 50.8357C68.3031 50.8357 68.3602 50.8357 68.4364 50.8357C69.7502 50.7967 71.2165 50.4845 72.3209 49.7038C73.1778 51.8701 74.3964 53.8997 75.9007 55.6562C75.4247 55.7537 74.9487 55.8903 74.4726 56.0074C73.1587 56.2807 71.902 56.4368 70.569 56.5539L70.531 56.5929ZM115.412 48.9622C108.348 54.1339 99.7982 57.7053 91.1913 58.7396C84.2982 59.5788 79.4235 56.8271 75.996 50.582C72.816 44.8249 73.6348 39.6922 75.3676 33.7985C76.8719 33.818 78.3381 34.0326 79.7472 34.7157C80.5469 35.106 81.1753 35.6134 81.6895 36.1989C77.7478 39.5946 78.8141 46.9911 82.394 50.4064C89.0967 56.7881 102.083 49.7624 108.748 46.6594C114.156 44.1418 117.774 38.17 114.327 32.3543C109.624 24.3918 99.3793 30.2856 92.9051 32.3738C92.2767 30.6954 91.3817 29.1927 90.2202 27.9827C89.8584 27.6119 89.4776 27.2607 89.0777 26.9484C94.9426 24.9773 100.636 22.3427 106.768 21.4254C112.213 20.6058 115.622 22.4012 119.164 26.8508C125.771 35.1646 123.486 43.0685 115.412 49.0013V48.9622Z" fill="#60E198"/>
<path d="M55.0895 27.5919C56.1939 24.3522 57.1269 21.0736 58.7836 18.0681C59.7928 16.2532 61.9255 14.1455 61.9826 12.0573C61.9826 11.8036 61.7731 11.6084 61.5446 11.6084C59.0692 11.4913 57.3174 14.8871 56.4986 16.8972C55.1466 20.2149 54.6515 23.9229 54.3659 27.4748C54.3278 27.9236 54.9752 27.9627 55.0895 27.5723V27.5919Z" fill="#60E198"/>
<path d="M46.8996 24.7828C46.5188 22.9093 45.7381 21.1334 45.1097 19.3184C44.5956 17.7962 44.4242 16.3325 43.415 15.0445C43.3007 14.9078 43.0722 14.9469 42.9961 15.103C41.5108 18.128 43.6054 23.2801 45.8904 25.3878C46.3474 25.8172 47.0329 25.3878 46.9187 24.7828H46.8996Z" fill="#60E198"/>
<path d="M26.1654 32.6875C31.8018 33.6243 37.2097 33.3901 42.7508 35.1856C42.9032 35.2441 42.9793 35.0099 42.846 34.9318C38.3331 31.4776 31.8208 28.7453 26.1654 30.5408C25.2324 30.8335 25.042 32.4924 26.1654 32.6875Z" fill="#60E198"/>
<path d="M62.6289 64.5157C63.0097 66.0379 62.9336 67.3064 62.3433 68.7311C61.8863 69.8435 61.6578 70.7607 61.6006 71.9512C61.5626 72.8489 62.5908 73.0831 63.1621 72.6147C65.6756 70.5656 64.3427 66.7795 62.9336 64.379C62.8384 64.2034 62.5718 64.3205 62.6289 64.5157Z" fill="#60E198"/>
<path d="M72.0741 65.9034C71.7694 65.7082 71.4838 65.6692 71.122 65.6302C70.684 65.5911 70.2461 65.5521 69.8081 65.5131C69.2749 65.474 68.9322 66.2937 69.3511 66.645C69.6938 66.9377 70.0366 67.2109 70.3603 67.5037C70.6078 67.6988 70.8173 67.894 71.122 67.9721C71.3886 68.0501 71.6932 68.0501 71.9598 68.0501C72.7596 68.0891 73.2547 66.9377 72.6263 66.3913C72.4359 66.2352 72.2645 66.04 72.055 65.9034H72.0741Z" fill="#60E198"/>
<path d="M44.425 99.6064C42.2161 101.09 41.3973 105.285 39.9692 107.549C37.7984 111.004 34.3328 112.487 31.229 114.848C30.3531 115.512 30.8291 117.093 32.0097 116.761C35.8181 115.687 39.7026 113.385 42.0638 110.067C43.6062 107.881 46.6529 102.124 44.7677 99.6649C44.6916 99.5673 44.5392 99.5673 44.444 99.6259L44.425 99.6064Z" fill="#60E198"/>
<path d="M8.32255 67.348C8.30351 67.0358 7.99884 66.8211 7.71321 66.9967C5.35203 68.3628 4.39994 71.5439 3.50497 74.0419C2.32438 77.3401 1.4675 80.6968 1.06762 84.1706C0.915287 85.4587 2.9718 85.7124 3.25743 84.4829C4.00006 81.3994 4.72365 78.3159 5.80903 75.3104C6.704 72.8124 8.49393 70.0607 8.32255 67.348Z" fill="#60E198"/>
<path d="M97.9906 15.9622C106.407 13.152 113.967 14.2839 121.621 18.714C122.555 19.2604 123.716 17.8553 122.821 17.1332C115.68 11.415 105.074 8.23397 97.4955 15.084C97.1147 15.4353 97.5145 16.1184 97.9906 15.9622Z" fill="#60E198"/>
</g>
<defs>
<clipPath id="clip0_7084_35521">
<rect width="124.8" height="105.6" fill="white" transform="translate(1.06738 11.1992)"/>
</clipPath>
</defs>
</svg>
