<svg width="128" height="128" viewBox="0 0 128 128" fill="none" xmlns="http://www.w3.org/2000/svg">
<g clip-path="url(#clip0_7084_35495)">
<path d="M22.2014 79.348C32.1324 76.0646 38.7063 77.7416 47.8112 81.8194C51.766 83.5847 55.5978 85.5441 60.0096 85.8089C64.8609 86.109 70.7668 82.5255 75.4071 84.2555C82.1743 86.7975 74.001 93.9468 70.2043 95.1119C65.1773 96.6653 60.1327 96.0475 55.0353 95.6238C53.7698 95.5179 53.6819 97.3538 54.7541 97.7245C62.4529 100.408 75.1083 99.9664 80.1529 92.1816C82.4028 88.704 82.6665 83.3552 78.2722 81.5017C75.829 80.4778 71.2765 81.0074 68.8685 81.2545C66.1792 81.537 64.2809 82.808 61.3103 82.8609C56.5294 82.9492 52.2406 80.5131 48.0221 78.6596C39.1281 74.7407 30.445 72.693 21.6741 78.0594C21.0237 78.4478 21.4456 79.5775 22.2014 79.3304V79.348Z" fill="#60E198"/>
<path d="M78.308 92.0392C83.6162 90.9094 103.162 79.594 106.431 83.4953C108.33 85.7548 106.73 89.8679 105.236 91.5979C103.601 93.4867 100.561 94.7577 98.3985 95.8875C93.8285 98.2706 89.0651 100.283 84.1787 101.872C67.4629 107.362 39.5681 112.446 27.7564 95.3932C26.8248 94.0516 24.7858 95.2167 25.5592 96.6818C37.9335 120.248 79.3626 108.439 97.5021 99.9476C102.16 97.7587 117.311 90.627 111.986 83.054C109.876 80.053 105.816 80.0177 102.652 80.5296C94.0921 81.8889 86.1649 88.1556 78.0619 91.1389C77.4994 91.3507 77.7279 92.1628 78.308 92.0392Z" fill="#60E198"/>
<path d="M21.5688 78.6961C17.7018 86.2691 25.1545 99.1732 31.8689 102.757C32.8884 103.304 33.7672 102.051 33.0642 101.203C30.0936 97.6374 27.1055 94.5835 25.1721 90.2763C23.4847 86.5162 23.4847 82.3149 21.8324 78.6784C21.7797 78.5725 21.6215 78.5902 21.5863 78.6784L21.5688 78.6961Z" fill="#60E198"/>
<path d="M78.3961 85.5797C81.4897 85.3503 83.8801 82.8965 86.1652 80.99C87.5713 79.8073 88.9248 78.2186 90.7879 77.8479C94.0045 77.2124 96.7465 79.5249 96.5356 82.7377C96.4477 84.2028 98.4164 84.5029 99.1195 83.4438C102.389 78.448 95.8325 74.335 91.4207 74.4762C89.1884 74.5468 87.4131 75.7295 85.8312 77.177C83.2649 79.5425 80.0308 81.9962 77.9567 84.7854C77.7282 85.1031 78.027 85.5974 78.3961 85.5621V85.5797Z" fill="#60E198"/>
<path d="M72.6131 83.0721C75.4958 82.5955 77.6929 80.0535 79.0991 77.6174C79.4682 76.9643 79.7143 76.0463 80.1889 75.4815C81.6302 73.7515 84.1437 73.6809 85.462 75.4462C86.3408 76.6289 86.376 77.794 87.7118 78.5354C88.327 78.8708 89.0125 78.5354 89.241 77.9175C90.7351 73.7691 85.1632 70.4328 81.6829 71.0859C79.2749 71.5449 78.2026 72.9571 77.2359 75.0931C75.9352 77.9705 73.9138 79.9829 72.1737 82.5249C71.9628 82.825 72.3143 83.1251 72.5956 83.0721H72.6131Z" fill="#60E198"/>
<path d="M60.643 84.3094C63.0862 84.2741 64.9493 83.4268 66.7598 81.7498C67.7441 80.8495 68.3417 79.6491 69.2557 78.7135C69.9061 78.0251 71.031 77.1954 72.0153 77.1778C74.0542 77.1248 74.4585 78.3958 75.4077 79.6668C75.9526 80.3905 76.9193 80.267 77.2533 79.4196C79.011 75.0418 73.4391 73.0294 70.0994 74.1768C68.2714 74.7946 67.0937 76.3304 66.0567 77.8662C64.4747 80.2317 62.5061 81.7498 60.309 83.4621C59.9574 83.7269 60.2563 84.3094 60.6605 84.3094H60.643Z" fill="#60E198"/>
<path d="M77.8504 91.8987C81.7701 92.1282 85.2855 90.4865 88.7658 88.8095C91.3496 87.5738 93.8456 86.1793 96.5349 85.1907C99.4351 84.1316 110.667 80.8128 108.681 89.5686C108.452 90.5571 109.63 91.2632 110.368 90.5571C114.885 86.2675 109.12 81.0953 104.515 80.7422C95.8493 80.0714 84.7582 86.7441 77.6571 91.1044C77.288 91.3339 77.4462 91.8811 77.868 91.9164L77.8504 91.8987Z" fill="#60E198"/>
<path d="M26.7891 77.3356C23.5901 76.3294 21.2348 77.7946 21.0238 81.1663C20.7602 85.5265 21.2699 89.869 24.5041 93.0289C24.8732 93.3819 25.506 93.0289 25.3654 92.517C24.6447 89.8691 23.6428 87.5212 23.4846 84.7321C23.4143 83.62 23.2737 82.2607 23.4846 81.1663C24.0119 78.4478 24.9084 78.3418 26.7891 77.4415C26.8418 77.4239 26.8243 77.3533 26.7891 77.3356Z" fill="#60E198"/>
<path d="M21.8498 77.7773C17.438 79.3131 10.2666 81.5021 8.22761 86.1977C6.18868 90.8933 8.03427 98.3074 10.0908 102.791C12.1473 107.275 15.5572 111.953 20.7601 112.518C25.9629 113.083 30.4626 108.44 34.0659 105.192C35.3139 104.062 33.4858 102.279 32.2379 103.356C28.7752 106.304 26.1035 110.188 21.2346 109.217C16.0318 108.175 13.1492 103.692 11.6024 98.7311C10.2138 94.3003 9.63378 88.9162 12.8855 85.0326C14.819 82.7201 20.0042 81.2549 22.6584 79.7015C23.6427 79.1189 22.9923 77.4066 21.8498 77.795V77.7773Z" fill="#60E198"/>
<path d="M16.295 80.794C12.9729 84.5716 15.1525 92.127 18.0527 95.5163C18.3691 95.887 18.8964 95.5516 18.9315 95.1456C19.1249 92.7801 18.703 90.6618 18.246 88.3493C17.789 86.0368 18.2285 83.4772 17.6308 81.147C17.4902 80.5821 16.6817 80.335 16.2774 80.794H16.295Z" fill="#60E198"/>
<path d="M20.6902 99.471C20.7957 101.678 21.7097 103.337 23.0983 105.014C23.8541 105.914 24.645 106.709 25.559 107.45C26.3149 108.05 27.3167 108.474 28.0198 109.056C28.3362 109.321 28.8635 109.48 29.2502 109.215C31.5528 107.574 28.2132 105.614 27.1234 104.661C25.0845 102.86 23.3971 100.76 21.1648 99.1885C20.9714 99.0473 20.6726 99.2415 20.6902 99.471Z" fill="#60E198"/>
<path d="M10.8647 109.709C10.8647 109.709 10.9175 109.621 10.8647 109.621C10.812 109.621 10.812 109.709 10.8647 109.709Z" fill="#60E198"/>
<path d="M68.9035 21.9222C52.4866 17.1559 26.6483 58.834 45.0163 62.1527C46.0182 62.3292 46.9322 61.1288 46.071 60.3168C38.3195 52.8497 44.366 40.6693 50.184 34.1202C56.002 27.571 61.9958 26.1765 68.9739 22.5223C69.2375 22.3811 69.1496 21.9928 68.9035 21.9222Z" fill="#60E198"/>
<path d="M69.5369 22.6995C79.7492 27.4834 72.4898 39.9286 68.0956 46.3894C62.8752 54.086 55.7037 59.4524 46.3176 60.1232C44.8763 60.2292 44.5247 62.2239 45.9661 62.6829C58.4809 66.6371 70.4509 51.9853 75.3373 42.2057C77.7454 37.3866 80.1534 18.4982 69.6072 22.0464C69.3435 22.1346 69.2381 22.5583 69.5193 22.6819L69.5369 22.6995Z" fill="#60E198"/>
<path d="M49.6744 65.2056C61.9608 71.2429 76.4618 54.5081 80.4167 44.4637C82.3853 39.4504 83.4224 33.0601 80.4167 28.2056C79.2917 26.3874 76.2861 22.5391 73.9835 22.5391C73.2628 22.5391 72.7004 23.1393 72.6828 23.8454C72.63 25.3458 73.9483 26.0519 74.7217 27.1464C77.9383 31.7008 79.0281 35.708 77.0243 41.6393C75.0205 47.5706 70.802 52.5663 66.3023 56.9795C61.0643 62.1341 56.5646 63.1932 49.7623 64.5878C49.4811 64.6408 49.4108 65.0997 49.6744 65.2233V65.2056Z" fill="#60E198"/>
<path d="M76.1279 27.3616H76.251C76.251 27.3616 76.2861 27.3086 76.251 27.3086H76.1279C76.1279 27.3086 76.0928 27.3616 76.1279 27.3616Z" fill="#60E198"/>
<path d="M34.7696 14.014C33.8028 16.1323 32.8888 18.0918 31.342 19.8924C31.1135 20.1572 31.0608 20.5808 31.342 20.8633C32.9767 22.4167 33.7677 24.3585 33.8204 26.6181H35.5781C35.3672 24.182 36.2109 22.0107 38.1795 20.5102C38.6189 20.1748 38.7947 19.557 38.3553 19.1333C36.8964 17.7387 36.1054 16.1853 35.5781 14.2435C35.332 13.3609 33.8556 13.5021 33.9259 14.473C34.1192 17.0326 33.8556 19.5217 33.2052 21.993L34.6817 22.1872C34.5762 21.0928 34.3301 20.2807 33.715 19.3451L33.2579 20.4573C34.2598 20.1925 34.9102 19.7865 35.5781 18.9744L34.3301 18.639C34.4356 19.3451 34.5411 20.0512 34.6465 20.7574L35.7539 19.91C35.3145 19.6276 35.2442 19.5923 34.7344 19.4864C33.7677 19.2745 33.4513 20.5808 34.3301 20.9339C35.1211 21.2516 35.6484 21.0928 36.2812 20.5455L35.1035 19.6276C34.752 20.369 34.5587 20.8986 34.629 21.7106C34.6817 22.3638 35.5078 22.4697 35.7363 21.8695C35.9297 21.3575 36.1406 20.8633 36.3867 20.3866C36.8261 19.5923 35.8418 18.9568 35.209 19.4687H34.7168C34.5762 19.9453 34.4532 20.422 34.3126 20.9162L34.9805 21.1987C35.5957 21.587 36.1757 20.9515 36.0879 20.3513C35.9824 19.6452 35.8769 18.9391 35.7715 18.233C35.6836 17.6858 34.8575 17.474 34.5235 17.8976C34.1544 18.4978 33.6095 18.8685 32.8713 18.9921C32.4143 19.1157 32.1506 19.6982 32.4143 20.1042C32.8888 20.7044 33.1525 21.3929 33.1701 22.1872C33.2404 22.9816 34.418 23.264 34.6465 22.3814C35.3145 19.7512 35.5781 17.1562 35.5957 14.4553L33.9435 14.6848C34.3477 16.9267 35.4727 18.7979 37.1073 20.369L37.2831 18.9921C34.8223 20.8456 33.5392 23.4935 33.8028 26.6004C33.9083 27.7125 35.5781 27.7478 35.5605 26.6004C35.5078 23.8642 34.3829 21.64 32.2912 19.8924V20.8633C33.838 18.8862 35.0332 16.7149 35.3145 14.1729C35.3496 13.8905 34.8926 13.7669 34.7696 14.0317V14.014Z" fill="#60E198"/>
<path d="M89.9791 41.9941C89.61 44.1654 88.6257 45.7188 87.2019 47.3782C86.7977 47.8548 87.0613 48.5962 87.7117 48.6139C89.0827 48.6492 89.9615 51.7914 90.3131 52.7623C90.6646 53.7332 92.0884 53.3625 91.9126 52.321C91.6138 50.5027 92.2993 48.9669 93.6879 47.8195C94.057 47.5194 93.9515 46.9722 93.6879 46.6544C92.4926 45.2246 91.8423 43.6182 91.5962 41.7646C91.4907 41.0056 90.5943 40.6702 90.1197 41.3586C89.2585 42.6473 90.2428 43.9536 89.5397 45.2775C88.9772 46.372 88.1335 46.7603 88.1159 48.102C88.1159 48.7198 88.9069 49.0552 89.3463 48.6139L90.0494 48.1902L89.1354 47.4841C89.2057 48.0666 89.2233 48.5962 89.1706 49.1788C89.1178 49.9908 90.4361 50.185 90.5943 49.373C90.6822 48.9493 90.7525 48.5256 90.8404 48.102C91.0513 47.59 90.9283 47.5194 90.4361 47.8725L89.9088 47.1664V47.3252C89.8736 48.0313 90.9283 48.3314 91.2447 47.6959C91.5435 47.1134 91.5962 46.9369 91.3677 46.319L90.0494 46.8839C90.7173 47.8372 92.018 47.8372 92.4223 46.6544C92.5805 46.1602 91.895 45.7541 91.5435 46.1425H91.2974C90.9634 45.4187 89.6979 45.9307 89.9791 46.7074L90.0143 46.9722L91.3501 47.3429V47.184C91.3677 46.8486 91.1216 46.5838 90.8228 46.4779L90.6295 46.4073C90.401 46.319 90.1021 46.4073 89.9264 46.6015C89.3288 47.2193 89.3639 48.1902 89.2057 48.9846L90.6295 49.1788C90.6646 48.5962 90.647 48.0666 90.5943 47.4841C90.5416 47.0251 90.1725 46.6544 89.6803 46.778C88.9421 46.9898 88.8718 47.0251 88.3444 47.5724L89.5748 48.0843C89.5748 47.0428 90.7701 46.3014 91.1216 45.4011C91.5083 44.4125 90.8755 42.9827 91.4907 42.1353L90.0143 41.7293C90.19 44.0595 91.0513 46.0013 92.5278 47.7842V46.6191C90.6295 48.1549 89.9264 50.3438 90.3131 52.727L91.9126 52.2856C91.1919 50.3615 90.19 47.1134 87.7117 47.1311L88.2214 48.3667C89.6627 46.5662 91.3853 44.3772 90.5592 41.9588C90.4713 41.7117 90.0494 41.6587 89.9967 41.9588L89.9791 41.9941Z" fill="#60E198"/>
<path d="M90.7878 45.8241C90.5417 46.4243 90.612 47.1127 90.5945 47.7482C90.5945 48.1543 91.069 48.2778 91.3327 48.0483C91.7018 47.7482 91.737 47.2893 91.5085 46.8833C91.3327 46.5655 90.7527 46.6008 90.6824 46.9892C90.5242 47.8365 90.0672 48.6132 89.3992 49.1605C89.0477 49.4606 89.5047 50.0254 89.8914 49.796C90.8405 49.2134 91.4206 48.3484 91.5612 47.2363L90.7351 47.3422V47.4305C90.9636 47.5364 91.2097 47.6423 91.4557 47.7306C91.4557 47.0951 91.5085 46.4066 91.28 45.8064C91.1921 45.5593 90.8757 45.5593 90.7702 45.8064L90.7878 45.8241Z" fill="#60E198"/>
<path d="M81.0146 9.91939C80.6982 10.0783 80.7333 10.3607 80.663 10.6785C80.5224 11.2963 80.2939 11.4022 80.0127 11.8788C79.8721 12.0907 79.749 12.3025 79.7314 12.5673C79.7314 13.0439 79.9951 13.2911 80.2939 13.6265C80.8915 14.2973 81.2079 14.9504 81.3837 15.833L82.7898 15.4447C82.4207 14.4561 82.6492 13.5558 83.4754 12.885C83.8972 12.532 83.6863 11.667 83.1414 11.5964C82.5262 11.5081 82.4559 10.6961 82.3856 10.1842C82.2625 9.30155 81.1025 9.56634 80.8564 10.1842C80.4345 11.2433 80.3818 12.3025 80.5751 13.4323C80.7509 14.3855 82.1219 13.9619 81.9989 13.0439C81.8934 12.2672 81.9989 11.5258 82.3153 10.802L80.8564 10.6078C81.0497 11.8612 81.5946 12.9557 82.948 13.1145L82.4032 11.7906C81.2431 12.7791 80.8212 14.4032 81.4013 15.833C81.7528 16.698 83.0184 16.3979 82.8074 15.4447C82.6844 14.8268 82.4735 14.2443 82.1395 13.6971C82.0165 13.4852 81.1903 12.5673 81.1903 12.5496C81.1903 12.4261 81.7001 11.7906 81.7704 11.4552C81.8758 10.9432 81.8231 10.5725 81.6298 10.1136C81.5595 9.97235 81.3661 9.86643 81.2255 9.88409C81.1728 9.88409 81.1025 9.88409 81.0497 9.91939H81.0146Z" fill="#60E198"/>
<path d="M6.40004 110.892C7.66559 117.141 17.0869 121.466 22.7994 119.507C23.4498 119.277 23.4849 118.359 22.7994 118.148C19.6004 117.177 16.4014 118.077 13.3254 116.206C10.8646 114.723 9.24753 111.828 6.69885 110.645C6.54066 110.575 6.36489 110.698 6.40004 110.875V110.892Z" fill="#60E198"/>
<path d="M115.853 79.1521C117.47 81.9413 119.228 83.9184 118.911 87.4136C118.612 90.6087 116.925 93.2213 115.132 95.7633C114.499 96.6636 115.73 97.7581 116.591 97.2285C122.901 93.4508 123.727 81.8 116.415 78.5872C116.064 78.4284 115.624 78.7638 115.853 79.1521Z" fill="#60E198"/>
<path d="M35.3662 38.3756C30.4622 42.9124 27.2808 54.0336 31.3762 59.9472C31.7629 60.4945 32.5539 60.2826 32.6066 59.6118C32.8879 56.2225 31.9914 52.9568 32.4836 49.5145C33.0285 45.7368 34.6104 42.4181 36.1396 38.9582C36.3505 38.4639 35.8056 37.952 35.3662 38.358V38.3756Z" fill="#60E198"/>
<path d="M39.8852 55.5707C39.6742 57.742 40.5355 59.5072 41.9417 61.1136C43.1721 62.5082 45.7383 64.6442 47.6894 64.397C48.1639 64.3441 48.6385 63.8322 48.287 63.3379C47.2499 61.855 44.9298 61.4314 43.5588 60.1604C42.1878 58.8894 41.1331 57.1241 40.0961 55.5177C40.0258 55.4118 39.8852 55.4648 39.8676 55.5883L39.8852 55.5707Z" fill="#60E198"/>
</g>
<defs>
<clipPath id="clip0_7084_35495">
<rect width="115.2" height="110.4" fill="white" transform="translate(6.40039 9.60156)"/>
</clipPath>
</defs>
</svg>
